<svg xmlns="http://www.w3.org/2000/svg" width="360" height="96" viewBox="0 0 360 96" role="img" aria-labelledby="title desc">
  <title id="title">Futrio</title>
  <desc id="desc">Logo Futrio z symbolem łapki i liścia.</desc>
  <defs>
    <linearGradient id="g" x1="12" y1="12" x2="84" y2="84" gradientUnits="userSpaceOnUse">
      <stop stop-color="#3f9b66"/>
      <stop offset="1" stop-color="#225f3c"/>
    </linearGradient>
    <filter id="s" x="-20%" y="-20%" width="140%" height="140%">
      <feDropShadow dx="0" dy="8" stdDeviation="8" flood-color="#1f2a24" flood-opacity="0.14"/>
    </filter>
  </defs>
  <g filter="url(#s)">
    <rect x="12" y="12" width="72" height="72" rx="26" fill="url(#g)"/>
    <path d="M51 57c0 9-7 15-16 15-7 0-12-4-12-10 0-8 8-15 17-15 6 0 11 4 11 10Z" fill="#fff8ea"/>
    <circle cx="34" cy="34" r="7" fill="#fff8ea"/>
    <circle cx="50" cy="29" r="7" fill="#fff8ea"/>
    <circle cx="64" cy="39" r="7" fill="#fff8ea"/>
    <path d="M55 62c13-1 21-10 21-23-13 1-21 10-21 23Z" fill="#ffe5b2"/>
    <path d="M60 57c4-5 8-9 13-13" fill="none" stroke="#225f3c" stroke-width="2" stroke-linecap="round" opacity="0.55"/>
  </g>
  <g fill="#1f2a24">
    <text x="104" y="53" font-family="Georgia, 'Times New Roman', serif" font-size="42" font-weight="700" letter-spacing="-.04em">Futrio</text>
    <text x="106" y="75" font-family="Verdana, Arial, sans-serif" font-size="13" font-weight="600" fill="#637066">Przewodnik dla opiekunów zwierząt</text>
  </g>
</svg>
