<svg xmlns="http://www.w3.org/2000/svg" width="112" height="112" viewBox="0 0 112 112" role="img" aria-labelledby="title desc" style="overflow: visible;">
  <title id="title">Znak Futrio</title>
  <desc id="desc">Minimalistyczny znak Futrio z łapką i liściem.</desc>
  <defs>
    <linearGradient id="mark" x1="12" y1="12" x2="100" y2="100" gradientUnits="userSpaceOnUse">
      <stop stop-color="#3f9b66"/>
      <stop offset="1" stop-color="#225f3c"/>
    </linearGradient>
  </defs>
  <rect x="12" y="12" width="88" height="88" rx="32" fill="url(#mark)"/>
  <circle cx="43" cy="43" r="8.5" fill="#fff8ea"/>
  <circle cx="58" cy="36" r="8.5" fill="#fff8ea"/>
  <circle cx="74" cy="45" r="8.5" fill="#fff8ea"/>
  <path d="M64 67c0 10.4-8.6 17.4-19.5 17.4-8.3 0-14-4.6-14-11.4 0-9.4 9.3-17 19.9-17 8.1 0 13.6 4.4 13.6 11Z" fill="#fff8ea"/>
  <path d="M71 82c15.7-1.5 25-12.1 25.7-28.2C80.9 55.6 71.9 65.9 71 82Z" fill="#ffe8bd"/>
  <path d="M78 75c4.9-5.7 9.3-10.2 14.6-14.3" fill="none" stroke="#225f3c" stroke-width="2.7" stroke-linecap="round" opacity=".6"/>
</svg>
