<svg xmlns="http://www.w3.org/2000/svg" width="96" height="96" viewBox="0 0 96 96" role="img" aria-labelledby="title desc">
  <title id="title">Znak Futrio</title>
  <desc id="desc">Symbol Futrio z łapką i liściem.</desc>
  <defs>
    <linearGradient id="g" x1="12" y1="12" x2="84" y2="84" gradientUnits="userSpaceOnUse">
      <stop stop-color="#3f9b66"/>
      <stop offset="1" stop-color="#225f3c"/>
    </linearGradient>
  </defs>
  <rect x="10" y="10" width="76" height="76" rx="28" fill="url(#g)"/>
  <path d="M51 57c0 9-7 15-16 15-7 0-12-4-12-10 0-8 8-15 17-15 6 0 11 4 11 10Z" fill="#fff8ea"/>
  <circle cx="34" cy="34" r="7" fill="#fff8ea"/>
  <circle cx="50" cy="29" r="7" fill="#fff8ea"/>
  <circle cx="64" cy="39" r="7" fill="#fff8ea"/>
  <path d="M55 62c13-1 21-10 21-23-13 1-21 10-21 23Z" fill="#ffe5b2"/>
  <path d="M60 57c4-5 8-9 13-13" fill="none" stroke="#225f3c" stroke-width="2" stroke-linecap="round" opacity="0.55"/>
</svg>
