<svg xmlns="http://www.w3.org/2000/svg" width="96" height="96" viewBox="0 0 96 96" role="img" aria-labelledby="title">
  <title id="title">Futrio</title>
  <defs>
    <linearGradient id="mark" x1="10" y1="10" x2="86" y2="86" gradientUnits="userSpaceOnUse">
      <stop stop-color="#3f9b66"/>
      <stop offset="1" stop-color="#225f3c"/>
    </linearGradient>
  </defs>
  <rect x="10" y="10" width="76" height="76" rx="28" fill="url(#mark)"/>
  <circle cx="36" cy="36" r="7.5" fill="#fff8ea"/>
  <circle cx="50" cy="30" r="7.5" fill="#fff8ea"/>
  <circle cx="64" cy="38" r="7.5" fill="#fff8ea"/>
  <path d="M55 58c0 9.2-7.6 15.4-17.2 15.4-7.3 0-12.3-4-12.3-10.1 0-8.3 8.2-15 17.6-15 7.1 0 11.9 3.9 11.9 9.7Z" fill="#fff8ea"/>
  <path d="M61 70c13.8-1.3 22-10.7 22.6-24.8C69.7 46.8 61.8 55.9 61 70Z" fill="#ffe8bd"/>
</svg>
