<svg xmlns="http://www.w3.org/2000/svg" width="640" height="480" viewBox="0 0 320 240" role="img" aria-labelledby="title desc">
  <title id="title">Ilustracja rasy Maltańczyk</title>
  <desc id="desc">Lokalna ilustracja SVG Futrio używana w katalogu ras.</desc>
  <defs>
    <linearGradient id="bg" x1="0" y1="0" x2="320" y2="240" gradientUnits="userSpaceOnUse">
      <stop stop-color="#eef7ed"/>
      <stop offset="1" stop-color="#fbf8f1"/>
    </linearGradient>
    <linearGradient id="shine" x1="76" y1="40" x2="250" y2="218" gradientUnits="userSpaceOnUse">
      <stop stop-color="#ffffff" stop-opacity=".48"/>
      <stop offset="1" stop-color="#ffffff" stop-opacity="0"/>
    </linearGradient>
  </defs>
  <rect width="320" height="240" rx="32" fill="url(#bg)"/>
  <circle cx="58" cy="50" r="28" fill="#2f7d4f" opacity=".16"/>
  <circle cx="266" cy="68" r="42" fill="#2f7d4f" opacity=".14"/>
  <path d="M38 184c58-18 102-17 153-1s81 6 103-9" fill="none" stroke="#2f7d4f" stroke-width="10" stroke-linecap="round" opacity=".14"/>
  <g opacity=".32" fill="#2f7d4f"><circle cx="39" cy="103" r="5"/><circle cx="54" cy="96" r="4"/><circle cx="67" cy="106" r="4"/><path d="M55 113c0 7-6 11-13 11-5 0-9-3-9-7 0-6 6-11 13-11 5 0 9 3 9 7Z"/></g>
  <path d='M198 143 c52-42 82 28 32 33' fill='none' stroke='#f6f2e9' stroke-width='18' stroke-linecap='round'/>
  <ellipse cx="160" cy="172" rx="44" ry="29" fill="#f6f2e9"/>
  <ellipse cx="142" cy="199" rx="13" ry="25" fill="#f6f2e9" opacity=".95"/>
  <ellipse cx="176" cy="199" rx="13" ry="25" fill="#f6f2e9" opacity=".95"/>
  <ellipse cx='116' cy='120' rx='14' ry='30' fill='#f6f2e9'/><ellipse cx='180' cy='120' rx='14' ry='30' fill='#f6f2e9'/>
  <circle cx="148" cy="116" r="35" fill="#f6f2e9"/>
  <path d="M130 119c11 10 25 10 36 0" fill="none" stroke="#fff8ea" stroke-width="16" stroke-linecap="round" opacity=".58"/>
  <circle cx="135" cy="111" r="4" fill="#1f2a24"/>
  <circle cx="161" cy="111" r="4" fill="#1f2a24"/>
  <path d="M144 124h8l-4 5Z" fill="#1f2a24" opacity=".8"/>
  <path d='M132 111c17 11 32 11 49 0' fill='none' stroke='#fff8ea' stroke-width='5' stroke-linecap='round' opacity='.72'/><path d='M151 128h18' stroke='#1f2a24' stroke-width='4' stroke-linecap='round' opacity='.25'/>
  <path d="M46 206c56 13 164 13 228 0" fill="none" stroke="#1f2a24" stroke-width="10" stroke-linecap="round" opacity=".08"/>
  <rect x="18" y="18" width="284" height="204" rx="28" fill="url(#shine)"/>
</svg>
